<svg width="60" height="60" viewBox="0 0 60 60" fill="none" xmlns="http://www.w3.org/2000/svg">
<path fill-rule="evenodd" clip-rule="evenodd" d="M3.125 22.5C3.125 14.5609 9.5609 8.125 17.5 8.125C22.8553 8.125 27.5268 11.0535 30 15.3963C32.4733 11.0535 37.1448 8.125 42.5 8.125C50.439 8.125 56.875 14.5609 56.875 22.5C56.875 26.334 56.1888 30.134 54.8518 33.6845C53.8398 36.372 52.469 38.8793 50.7848 41.125C50.1635 41.9535 48.9883 42.1213 48.1598 41.5C47.3313 40.8788 47.1635 39.7035 47.7847 38.875C49.2515 36.9193 50.4525 34.7258 51.3423 32.363C52.518 29.2405 53.125 25.8888 53.125 22.5C53.125 16.632 48.368 11.875 42.5 11.875C36.632 11.875 31.875 16.632 31.875 22.5C31.875 23.5355 31.0355 24.375 30 24.375C28.9645 24.375 28.125 23.5355 28.125 22.5C28.125 16.632 23.368 11.875 17.5 11.875C11.632 11.875 6.875 16.632 6.875 22.5C6.875 25.8888 7.48195 29.2405 8.65772 32.363C9.83348 35.4855 11.5528 38.3115 13.7097 40.6843C15.8663 43.0565 18.4168 44.9277 21.2103 46.2005C24.0032 47.473 26.9893 48.125 30 48.125C33.0108 48.125 35.9967 47.473 38.7897 46.2005C39.732 45.771 40.844 46.187 41.2733 47.1292C41.7028 48.0715 41.2868 49.1835 40.3445 49.613C37.071 51.1045 33.5555 51.875 30 51.875C26.4445 51.875 22.9289 51.1045 19.6555 49.613C16.3827 48.1218 13.4213 45.9417 10.935 43.2067C8.44895 40.472 6.48528 37.235 5.1483 33.6845C3.81135 30.134 3.125 26.334 3.125 22.5Z" fill="#1F1F1F"/>
<path fill-rule="evenodd" clip-rule="evenodd" d="M17.5 23.125C18.5355 23.125 19.375 23.9645 19.375 25C19.375 30.868 24.132 35.625 30 35.625C35.868 35.625 40.625 30.868 40.625 25C40.625 23.9645 41.4645 23.125 42.5 23.125C43.5355 23.125 44.375 23.9645 44.375 25C44.375 32.939 37.939 39.375 30 39.375C22.0609 39.375 15.625 32.939 15.625 25C15.625 23.9645 16.4645 23.125 17.5 23.125Z" fill="#1F1F1F"/>
</svg>
