<svg width="28" height="28" viewBox="0 0 28 28" fill="none" xmlns="http://www.w3.org/2000/svg">
<g clip-path="url(#clip0_1059_309)">
<path d="M14 28C21.732 28 28 21.732 28 14C28 6.26801 21.732 0 14 0C6.26801 0 0 6.26801 0 14C0 21.732 6.26801 28 14 28Z" fill="#1F1F1F"/>
<path d="M17.5196 14.5484H15.0215V23.7004H11.2366V14.5484H9.43652V11.3321H11.2366V9.25071C11.2366 7.76231 11.9436 5.43164 15.0552 5.43164L17.8588 5.44337V8.56541H15.8246C15.4909 8.56541 15.0218 8.73212 15.0218 9.44212V11.3351H17.8503L17.5196 14.5484Z" fill="white"/>
</g>
<defs>
<clipPath id="clip0_1059_309">
<rect width="28" height="28" fill="white"/>
</clipPath>
</defs>
</svg>
