<svg width="28" height="28" viewBox="0 0 28 28" fill="none" xmlns="http://www.w3.org/2000/svg">
<g clip-path="url(#clip0_1059_318)">
<path d="M14 28C21.732 28 28 21.732 28 14C28 6.26801 21.732 0 14 0C6.26801 0 0 6.26801 0 14C0 21.732 6.26801 28 14 28Z" fill="#1F1F1F"/>
<path d="M14.002 7.00675C11.1341 7.00675 8.41067 6.75163 7.37044 9.42133C6.94076 10.524 7.00316 11.956 7.00316 14.0064C7.00316 15.8057 6.9455 17.4967 7.37044 18.5907C8.4083 21.262 11.1538 21.0061 14.0004 21.0061C16.7467 21.0061 19.5784 21.292 20.6312 18.5907C21.0617 17.477 20.9985 16.0663 20.9985 14.0064C20.9985 11.2719 21.1494 9.50663 19.8232 8.18126C18.4805 6.83852 16.6646 7.00675 13.9989 7.00675H14.002ZM13.3749 8.26814C19.3572 8.25867 20.1186 7.59361 19.6984 16.8325C19.5491 20.1001 17.0611 19.7415 14.0028 19.7415C8.42647 19.7415 8.26613 19.582 8.26613 14.0032C8.26613 8.35977 8.70845 8.2713 13.3749 8.26657V8.26814ZM17.738 9.43001C17.2744 9.43001 16.8984 9.80598 16.8984 10.2696C16.8984 10.7333 17.2744 11.1092 17.738 11.1092C18.2017 11.1092 18.5776 10.7333 18.5776 10.2696C18.5776 9.80598 18.2017 9.43001 17.738 9.43001ZM14.002 10.4118C12.0171 10.4118 10.4082 12.0215 10.4082 14.0064C10.4082 15.9913 12.0171 17.6002 14.002 17.6002C15.9869 17.6002 17.595 15.9913 17.595 14.0064C17.595 12.0215 15.9869 10.4118 14.002 10.4118ZM14.002 11.6732C17.0864 11.6732 17.0903 16.3396 14.002 16.3396C10.9184 16.3396 10.9137 11.6732 14.002 11.6732Z" fill="white"/>
</g>
<defs>
<clipPath id="clip0_1059_318">
<rect width="28" height="28" fill="white"/>
</clipPath>
</defs>
</svg>
