<svg width="28" height="28" viewBox="0 0 28 28" fill="none" xmlns="http://www.w3.org/2000/svg">
<g clip-path="url(#clip0_1059_322)">
<path d="M14 28C21.732 28 28 21.732 28 14C28 6.26801 21.732 0 14 0C6.26801 0 0 6.26801 0 14C0 21.732 6.26801 28 14 28Z" fill="#1F1F1F"/>
<path d="M22.6097 15.1445V20.9164H19.2633V15.5313C19.2633 14.1792 18.7801 13.2558 17.5685 13.2558C16.6439 13.2558 16.0946 13.8775 15.852 14.4794C15.7639 14.6945 15.7412 14.9933 15.7412 15.295V20.9161H12.3946C12.3946 20.9161 12.4395 11.7956 12.3946 10.8515H15.7415V12.2778C15.7347 12.289 15.7252 12.3 15.7192 12.3107H15.7415V12.2778C16.1862 11.5935 16.9793 10.6152 18.7574 10.6152C20.9591 10.6152 22.6097 12.0537 22.6097 15.1445ZM8.89369 6C7.74894 6 7 6.75144 7 7.73871C7 8.70502 7.72723 9.47816 8.84976 9.47816H8.87147C10.0387 9.47816 10.7644 8.70502 10.7644 7.73871C10.7422 6.75144 10.0387 6 8.89369 6ZM7.1989 20.9164H10.5443V10.8515H7.1989V20.9164Z" fill="white"/>
</g>
<defs>
<clipPath id="clip0_1059_322">
<rect width="28" height="28" fill="white"/>
</clipPath>
</defs>
</svg>
