<svg width="28" height="28" viewBox="0 0 28 28" fill="none" xmlns="http://www.w3.org/2000/svg">
<g clip-path="url(#clip0_1059_313)">
<path d="M13.9999 27.9998C21.7318 27.9998 27.9997 21.7318 27.9997 13.9999C27.9997 6.26796 21.7318 0 13.9999 0C6.26796 0 0 6.26796 0 13.9999C0 21.7318 6.26796 27.9998 13.9999 27.9998Z" fill="#1F1F1F"/>
<path d="M22.5755 10.0613C21.9755 10.3273 21.3301 10.5073 20.6533 10.5876C21.3444 10.1736 21.8747 9.51851 22.125 8.73664C21.4784 9.12021 20.7619 9.39847 20 9.54846C19.3896 8.89835 18.5198 8.49207 17.5568 8.49207C15.709 8.49207 14.2104 9.99068 14.2104 11.8384C14.2104 12.1007 14.2401 12.356 14.2975 12.6011C11.5164 12.4616 9.0505 11.1294 7.3999 9.10424C7.11191 9.59837 6.9467 10.1736 6.9467 10.7868C6.9467 11.9475 7.53791 12.9722 8.43533 13.5721C7.88704 13.5549 7.3707 13.4044 6.91975 13.1531C6.9195 13.1673 6.9195 13.1816 6.9195 13.1955C6.9195 14.8169 8.07347 16.1693 9.60402 16.4765C9.32352 16.5534 9.02729 16.5941 8.72257 16.5941C8.50645 16.5941 8.29707 16.5733 8.09293 16.5344C8.51868 17.8636 9.75426 18.8311 11.2189 18.8583C10.0734 19.756 8.63074 20.2908 7.06249 20.2908C6.79297 20.2908 6.52594 20.2751 6.26465 20.2439C7.74479 21.1937 9.5042 21.7475 11.3939 21.7475C17.549 21.7475 20.9151 16.6485 20.9151 12.226C20.9151 12.081 20.9119 11.9365 20.9054 11.7933C21.5597 11.3216 22.127 10.7324 22.5755 10.0613Z" fill="white"/>
</g>
<defs>
<clipPath id="clip0_1059_313">
<rect width="28" height="28" fill="white"/>
</clipPath>
</defs>
</svg>
