<svg width="28" height="28" viewBox="0 0 28 28" fill="none" xmlns="http://www.w3.org/2000/svg">
<g clip-path="url(#clip0_1059_327)">
<path d="M14 28C21.732 28 28 21.732 28 14C28 6.26801 21.732 0 14 0C6.26801 0 0 6.26801 0 14C0 21.732 6.26801 28 14 28Z" fill="#1F1F1F"/>
<path d="M18.5553 7.44507H10.7776C8.44423 7.44507 6.88867 9.00062 6.88867 11.334V16.0006C6.88867 18.334 8.44423 19.8895 10.7776 19.8895H18.5553C20.8887 19.8895 22.4442 18.334 22.4442 16.0006V11.334C22.4442 9.00062 20.8887 7.44507 18.5553 7.44507ZM16.1365 14.4684L14.2153 15.6195C13.4375 16.0862 12.7998 15.7284 12.7998 14.8184V12.5084C12.7998 11.5984 13.4375 11.2406 14.2153 11.7073L16.1365 12.8584C16.8754 13.3095 16.8754 14.0251 16.1365 14.4684Z" fill="white"/>
</g>
<defs>
<clipPath id="clip0_1059_327">
<rect width="28" height="28" fill="white"/>
</clipPath>
</defs>
</svg>
